<?xml version="1.0" ?><!-- Uploaded to: SVG Repo, www.svgrepo.com, Generator: SVG Repo Mixer Tools -->
<svg fill="#000000" width="800px" height="800px" viewBox="0 0 100 100" data-name="Layer 1" id="Layer_1" xmlns="http://www.w3.org/2000/svg"><title/><path d="M64.51,50.88V77H56.29V59H43.71V77H35.49V50.88a4.7,4.7,0,0,1,2-3.88l10.6-7.3v-8H45.44a1.27,1.27,0,0,1-1.27-1.28v-.71a1.27,1.27,0,0,1,1.27-1.27h2.69V24.27A1.27,1.27,0,0,1,49.4,23h1.2a1.27,1.27,0,0,1,1.27,1.27v4.22h2.69a1.27,1.27,0,0,1,1.27,1.27v.71a1.27,1.27,0,0,1-1.27,1.28H51.87v8L62.47,47A4.7,4.7,0,0,1,64.51,50.88Zm12.78,3.77H68.51V77H82V59.36A4.71,4.71,0,0,0,77.29,54.65ZM18,59.36V77H31.49V54.65H22.71A4.71,4.71,0,0,0,18,59.36Z"/></svg>